<?xml version="1.0" encoding="UTF-8"?>
<svg id="Layer_1" data-name="Layer 1" xmlns="http://www.w3.org/2000/svg" viewBox="0 0 382.47 440.76">
  <defs>
    <style>
      .cls-1 {
        fill: #fff;
      }
    </style>
  </defs>
  <path class="cls-1" d="m382.43,220.32c0,35.91-.02,71.83.05,107.74,0,1.99-.54,3.11-2.32,4.14-62.3,35.93-124.56,71.92-186.8,107.95-1.52.88-2.56.79-4.03-.06-62.34-36.03-124.71-72.02-187.1-107.96C.54,331.16,0,330.11,0,328.2c.05-71.92.05-143.83,0-215.75,0-1.76.45-2.79,2.08-3.73C64.56,72.74,127,36.7,189.42.64c1.37-.79,2.37-.88,3.8-.05,62.4,36.11,124.81,72.18,187.27,108.2,1.69.97,1.97,2.1,1.97,3.8-.03,35.91-.03,71.83-.03,107.74Zm-352.17,0c0,29.77.03,59.54-.06,89.31,0,2.57.66,4,3.01,5.35,52.03,29.88,104,59.85,155.94,89.87,1.68.97,2.82.91,4.47-.04,52-30.09,104.03-60.14,156.1-90.12,1.97-1.13,2.54-2.37,2.54-4.55-.06-59.8-.06-119.61.02-179.41,0-2.47-.86-3.67-2.9-4.85-51.91-29.9-103.8-59.85-155.65-89.85-1.76-1.02-2.95-1.02-4.71,0-52.02,30.06-104.08,60.06-156.18,89.99-2.08,1.19-2.64,2.48-2.64,4.73.07,29.86.05,59.72.05,89.57Z"/>
  <path class="cls-1" d="m299.27,318.91v-97.27c-.17-.05-.35-.09-.52-.14-11.11,27.88-22.23,55.76-33.34,83.64-.21.02-.42.04-.63.07-9.09-37.06-18.17-74.12-27.26-111.18h-.44c0,.96,0,1.93,0,2.89.03,51.54.03,103.08.16,154.62,0,2.69-.88,4.02-3.12,5.28-8.94,5.01-17.77,10.2-26.94,15.51V68.61c.5.2,1.05.35,1.52.63,10.93,6.32,21.87,12.62,32.74,19.05.96.57,1.76,1.9,2.04,3.03,9.34,37.77,18.6,75.56,27.88,113.35.14.59.36,1.15.74,2.32,10.96-27.56,21.72-54.63,32.56-81.89,8.24,4.65,16.32,9.19,24.36,13.81.54.31.83,1.21,1.03,1.89.17.56.04,1.22.04,1.83,0,51.8-.02,103.61.05,155.41,0,2.36-.6,3.74-2.77,4.94-8.67,4.8-17.21,9.82-25.8,14.76-.59.34-1.21.62-2.29,1.17Z"/>
  <path class="cls-1" d="m145.54,194.86c-9.06,36.95-18.11,73.89-27.28,111.3-11.43-28.66-22.68-56.91-33.94-85.15-.14.03-.27.05-.41.08v98.11c-.98-.48-1.68-.76-2.32-1.14-8.64-5.03-17.25-10.1-25.93-15.06-1.47-.84-2.09-1.71-2.09-3.47.05-52.77.03-105.54.1-158.31,0-1.01.6-2.46,1.39-2.94,7.26-4.43,14.62-8.7,22.22-13.17,11.25,27.2,22.46,54.29,33.66,81.38.18-.01.36-.02.53-.03,1.82-7.48,3.64-14.96,5.47-22.44,7.59-31.06,15.17-62.12,22.82-93.17.26-1.06,1-2.33,1.9-2.85,11.02-6.51,22.12-12.89,33.2-19.31.36-.21.76-.36,1.36-.64v304.63c-.89-.46-1.72-.85-2.51-1.31-8.5-4.91-16.97-9.88-25.53-14.7-1.68-.95-2.23-1.98-2.23-3.89.11-51.54.16-103.08.21-154.62,0-1.04,0-2.08,0-3.12-.21-.05-.43-.1-.64-.15Z"/>
</svg>